<?xml version="1.0" encoding="utf-8"?>
<!-- Svg Vector Icons : http://www.onlinewebfonts.com/icon -->
<!DOCTYPE svg PUBLIC "-//W3C//DTD SVG 1.1//EN" "http://www.w3.org/Graphics/SVG/1.1/DTD/svg11.dtd">
<svg version="1.1" xmlns="http://www.w3.org/2000/svg" xmlns:xlink="http://www.w3.org/1999/xlink" x="0px" y="0px" viewBox="0 0 1000 1000" enable-background="new 0 0 1000 1000" xml:space="preserve">
<metadata> Svg Vector Icons : http://www.onlinewebfonts.com/icon </metadata>
<g><g transform="translate(0.000000,512.000000) scale(0.100000,-0.100000)"><path d="M4651.5,5015.8c-36.4-3.8-149.5-17.3-249.1-26.8c-601.7-65.1-1280.1-289.4-1820.5-597.9c-281.7-161-613.2-396.7-655.4-465.7c-70.9-116.9-26.8-268.3,95.8-327.7c95.8-46,166.7-23,350.7,113.1c569.2,419.7,1247.6,697.6,1971.9,812.5c306.6,47.9,996.5,47.9,1293.5-1.9c709.1-115,1303.1-348.8,1868.5-735.9c243.4-166.7,335.4-243.4,580.7-482.9C8810,2603.1,9229.7,1786.7,9396.4,763.4c49.8-297,49.8-985,1.9-1293.5c-115-724.4-394.8-1404.7-810.6-1966.2c-132.2-180.1-153.3-233.8-122.7-322c46-141.8,195.5-203.1,325.8-136.1c109.2,55.6,408.2,513.6,624.7,954.3c668.8,1364.5,643.9,2995.3-67.1,4373.1c-243.4,471.4-496.3,814.5-900.7,1216.9c-753.1,753.1-1684.5,1224.6-2727,1381.7C5477.4,5008.1,4818.2,5034.9,4651.5,5015.8z"/><path d="M1200.1,3197.1c-99.6-53.7-394.8-498.3-590.2-883.4c-245.3-490.6-390.9-956.3-473.3-1531.2C84.8,433.8,88.6-242.7,144.2-597.2c82.4-523.2,218.5-958.2,454.2-1437.3c251-511.7,515.5-881.5,929.4-1295.4c402.4-404.4,745.5-657.3,1216.9-900.7c1372.1-707.1,2985.7-735.9,4352-76.7c442.7,214.6,917.9,523.2,975.4,634.3c63.2,122.7,1.9,277.9-128.4,320c-95.8,32.6-155.2,11.5-327.7-116.9c-563.4-415.8-1243.7-695.6-1968.1-810.6c-308.5-47.9-996.5-47.9-1293.5,1.9c-711,115-1276.3,335.4-1839.7,716.7c-266.4,180.1-352.6,251.1-609.4,502.1C1184.8-2362.2,761.3-1536.3,596.5-520.6c-49.8,297-49.8,986.9-1.9,1293.5c115,724.4,392.9,1402.8,812.5,1971.9c107.3,143.7,120.7,174.4,120.7,251c0,99.7-34.5,159.1-115,201.2C1343.8,3233.6,1265.3,3233.6,1200.1,3197.1z"/><path d="M2802.2,2610.8c-201.2-69-366-231.9-435-425.4c-30.7-93.9-32.6-231.9-34.5-2132.9c0-2244.1-5.7-2134.8,122.6-2315c92-128.4,233.8-230,379.4-268.3c109.2-28.7,304.7-32.6,2219.1-26.8l2098.4,5.8l126.5,61.3c151.4,74.7,268.3,195.5,339.2,346.9l51.7,109.2V44.7V2124l-51.7,109.2c-70.9,153.3-201.2,285.5-346.9,352.6l-118.8,55.6l-2117.6,3.8C2940.2,2649.1,2915.2,2649.1,2802.2,2610.8z M7104.4,2160.4c113.1-67.1,115-80.5,115-743.5V811.3H5006H2792.6v603.7c0,504,5.7,615.2,28.7,661.1c61.3,120.7-61.3,113.1,2180.8,115C6864.9,2191.1,7054.6,2189.2,7104.4,2160.4z M7219.4-790.8c0-1255.2,3.8-1209.2-115-1280.1c-49.8-28.8-239.5-30.7-2098.4-30.7c-2244.1,0-2121.4-5.7-2184.7,115c-24.9,47.9-28.7,214.6-28.7,1197.7V351.3H5006h2213.4V-790.8z"/><path d="M3338.8,1781c-128.4-55.6-201.2-203.1-174.4-348.8c17.2-90.1,139.9-212.7,230-230c113.1-19.2,197.4,5.7,279.8,88.1C3911.8,1528,3645.4,1915.1,3338.8,1781z"/><path d="M4383.2,1786.7c-226.1-90.1-256.8-389-57.5-538.5c185.9-138,467.6,13.4,467.6,251.1C4793.3,1712,4576.7,1863.4,4383.2,1786.7z"/><path d="M5387.4,1773.3c-233.8-111.1-222.3-458,19.2-550c205.1-78.6,413.9,61.3,413.9,277.9C5820.4,1723.5,5590.5,1867.2,5387.4,1773.3z"/><path d="M6424.1,1781c-78.6-34.5-159-132.2-174.4-212.7c-19.2-111.1,7.7-197.4,88.1-277.9c82.4-82.4,166.7-107.3,279.8-88.1c90.1,17.2,212.7,139.9,230,231.9C6893.6,1681.3,6650.2,1878.7,6424.1,1781z"/><path d="M3156.7-836.8v-881.5h1839.7h1839.7v881.5V44.7H4996.4H3156.7V-836.8z M6529.5-836.8v-574.9H4996.4H3463.3v574.9v574.9h1533.1h1533.1V-836.8z"/></g></g>
</svg>