<svg xmlns="http://www.w3.org/2000/svg" height="24" viewBox="0 96 960 960" width="24"><path d="M264.174 564.239Q251.5 551.565 251.5 532.413t12.674-31.826l184-184q6.956-6.957 14.913-9.815 7.956-2.859 16.913-2.859t16.913 2.859q7.957 2.858 14.913 9.815l184 184q12.674 12.674 13.055 31.446.38 18.771-13.055 32.206-12.674 12.674-31.826 12.674t-31.826-12.674L480 412.826 327.826 564.239q-12.674 12.674-31.446 13.055-18.771.38-32.206-13.055Zm0 247.174Q251.5 798.739 251.5 779.587t12.674-31.826l184-184q6.956-6.957 14.913-9.815 7.956-2.859 16.913-2.859t16.913 2.859q7.957 2.858 14.913 9.815l184 184q12.674 12.674 13.055 31.446.38 18.771-13.055 32.206-12.674 12.674-31.826 12.674t-31.826-12.674L480 660.239 327.826 811.413q-12.674 12.674-31.446 13.055-18.771.38-32.206-13.055Z"/></svg>