<svg xmlns="http://www.w3.org/2000/svg" height="24" viewBox="0 96 960 960" width="24"><path d="M480 600.913q-8.957 0-16.913-2.859-7.957-2.858-14.913-9.815l-184-184q-12.674-12.674-13.055-31.446-.38-18.771 13.055-32.206 12.674-12.674 31.826-12.674t31.826 12.674L480 491.761l152.174-151.174q12.674-12.674 31.446-13.055 18.771-.38 32.206 13.055 12.674 12.674 12.674 31.826t-12.674 31.826l-184 184q-6.956 6.957-14.913 9.815-7.956 2.859-16.913 2.859Zm0 247.174q-8.957 0-16.913-2.859-7.957-2.858-14.913-9.815l-184-184q-12.674-12.674-13.055-31.446-.38-18.771 13.055-32.206 12.674-12.674 31.826-12.674t31.826 12.674L480 739.174l152.174-151.413q12.674-12.674 31.446-13.055 18.771-.38 32.206 13.055 12.674 12.674 12.674 31.826t-12.674 31.826l-184 184q-6.956 6.957-14.913 9.815-7.956 2.859-16.913 2.859Z"/></svg>