<svg xmlns="http://www.w3.org/2000/svg" height="48" viewBox="0 96 960 960" width="48"><path d="M140 468h680-680Zm102 468V760H80V514q0-45.05 30.5-75.525Q141 408 186 408h588q45.05 0 75.525 30.475Q880 468.95 880 514v87q-14-9-28.5-15.5T820 574v-60q0-20-13.225-33T774 468H186q-19.55 0-32.775 13.225Q140 494.45 140 514v186h102v-76h376q-14 13-25.5 28T572 684H302v192h267q8 17 18.5 32t24.5 28H242Zm416-528V276H302v132h-60V216h476v192h-60Zm27 528q-14 0-24.5-10.5T650 901V781q0-14 11.5-24.5T690 746v-45q0-30.938 22.044-52.969 22.045-22.031 53-22.031Q796 626 818 648.031q22 22.031 22 52.969v45q17 0 28.5 10.5T880 781v120q0 14-10.5 24.5T845 936H685Zm35-190h90v-44.912Q810 682 797.088 669q-12.913-13-32-13Q746 656 733 668.938 720 681.875 720 701v45Z"/></svg>